<?xml version="1.0" encoding="utf-8"?>
<!-- Svg Vector Icons : http://www.onlinewebfonts.com/icon -->
<!DOCTYPE svg PUBLIC "-//W3C//DTD SVG 1.1//EN" "http://www.w3.org/Graphics/SVG/1.1/DTD/svg11.dtd">
<svg version="1.1" xmlns="http://www.w3.org/2000/svg" xmlns:xlink="http://www.w3.org/1999/xlink" x="0px" y="0px" viewBox="0 0 256 256" enable-background="new 0 0 256 256" xml:space="preserve">
<metadata> Svg Vector Icons : http://www.onlinewebfonts.com/icon </metadata>
<g><g><g><path fill="#000000" d="M116.6,10.3C81,13.9,49.4,33,29.3,62.9C21.9,74,15,90.5,12.4,103.4c-2,9.8-2.4,13.6-2.4,24.5c0,10.8,0.4,14.6,2.4,24.5c2.6,12.8,9.5,29.3,16.9,40.5c22.2,33.2,59.2,53.2,98.6,53.2c44.6,0,85.6-25.5,105.6-65.6c20-40.2,15.7-87.4-11.3-123.4c-18.7-24.9-46.3-41.3-77.8-46.1C138.7,10.1,122.5,9.6,116.6,10.3z M144.3,25.9c6.6,1.1,15.6,3.6,20.8,5.6c31.1,12.2,54.4,38.3,62.7,70.1c2.5,9.8,3.2,15.5,3.2,26.3c0,10.8-0.7,16.5-3.2,26.3c-9.4,35.8-37.7,64.2-73.6,73.6c-9.8,2.5-15.5,3.2-26.3,3.2s-16.5-0.7-26.3-3.2c-22.3-5.8-42.3-19.2-56.2-37.8c-10.6-14-16.9-29.2-19.8-47.1c-1.1-7.1-1.1-22.9,0-30C29.4,89.9,39,71,54.9,55c17.5-17.5,39.7-27.9,64.6-30.1C124.6,24.4,138.9,25,144.3,25.9z"/><path fill="#000000" d="M95.2,69.6c-0.8,0.5-2.1,1.5-2.8,2.4l-1.2,1.6l-0.1,53.7c-0.1,59.9-0.3,55.6,3,58.2c1.3,1,2.1,1.2,4.2,1.2h2.6l43.1-26.2c23.7-14.4,43.8-26.9,44.6-27.8c2.6-2.7,2.6-7,0-9.7c-0.8-0.8-20.9-13.3-44.6-27.7C97.2,66.9,98.9,67.7,95.2,69.6z M137.6,108.7c22.7,13.8,31.2,19.2,30.8,19.6c-0.8,0.6-62.2,37.9-62.4,37.9c-0.1,0-0.2-17.3-0.2-38.3c0-21.1,0.1-38.3,0.2-38.3C106.1,89.6,120.3,98.2,137.6,108.7z"/></g></g></g>
</svg>